<?xml version="1.0" standalone="no"?><!DOCTYPE svg PUBLIC "-//W3C//DTD SVG 1.1//EN" "http://www.w3.org/Graphics/SVG/1.1/DTD/svg11.dtd"><svg class="icon" width="200px" height="141.73px" viewBox="0 0 1445 1024" version="1.1" xmlns="http://www.w3.org/2000/svg"><path d="M0 0m162.032324 0l972.193945 0q162.032324 0 162.032324 162.032324l0 594.118522q0 162.032324-162.032324 162.032324l-972.193945 0q-162.032324 0-162.032324-162.032324l0-594.118522q0-162.032324 162.032324-162.032324Z" fill="#F2EFDC" /><path d="M1033.226121 633.00628a54.010775 54.010775 0 1 1-67.513469 84.256808l-232.246331-185.797065-128.005536 128.005536a54.010775 54.010775 0 0 1-71.834331 3.780755L296.519153 473.674494 0 702.140071v-134.486829l264.112688-205.240944a54.010775 54.010775 0 0 1 66.973361 0l232.246331 185.797065 128.005537-128.005536a54.010775 54.010775 0 0 1 71.83433-3.780754zM972.193945 135.026937A135.026937 135.026937 0 1 0 1107.220882 270.053874 135.026937 135.026937 0 0 0 972.193945 135.026937z" fill="#CECBBC" /><path d="M790.177634 389.957794a54.010775 54.010775 0 0 0-71.83433 3.780754l-128.005536 128.005536-232.786439-185.797065a54.010775 54.010775 0 0 0-66.973361 0L0 561.712057v136.64726l324.064648-251.69021 236.567194 189.577819a54.010775 54.010775 0 0 0 71.83433-3.780754l128.005536-128.005536 232.246331 185.797065a54.010775 54.010775 0 1 0 67.513469-84.256809z" fill="#494138" /><path d="M999.199332 243.048486m-135.026936 0a135.026937 135.026937 0 1 0 270.053873 0 135.026937 135.026937 0 1 0-270.053873 0Z" fill="#F9CF00" /></svg>