<svg class="icon" width="200" height="141.73" viewBox="0 0 1445 1024" xmlns="http://www.w3.org/2000/svg"><path d="M162.032 0h972.194q162.033 0 162.033 162.032v594.119q0 162.032-162.033 162.032H162.032Q0 918.183 0 756.151V162.032Q0 0 162.032 0Z" fill="#F2EFDC"/><path d="M1033.226 633.006a54.01 54.01 0 1 1-67.513 84.257L733.466 531.466 605.461 659.472a54.01 54.01 0 0 1-71.835 3.78L296.52 473.674 0 702.14V567.653l264.113-205.24a54.01 54.01 0 0 1 66.973 0l232.246 185.796 128.006-128.005a54.01 54.01 0 0 1 71.834-3.78zm-61.032-497.98a135.027 135.027 0 1 0 135.027 135.028 135.027 135.027 0 0 0-135.027-135.027z" fill="#CECBBC"/><path d="M790.178 389.958a54.01 54.01 0 0 0-71.835 3.78L590.338 521.745 357.55 335.947a54.01 54.01 0 0 0-66.973 0L0 561.712V698.36l324.065-251.69 236.567 189.578a54.01 54.01 0 0 0 71.834-3.78L760.472 504.46l232.246 185.797A54.01 54.01 0 1 0 1060.232 606z" fill="#494138"/><path d="M864.172 243.048a135.027 135.027 0 1 0 270.054 0 135.027 135.027 0 1 0-270.054 0Z" fill="#F9CF00"/></svg>