<svg class="icon" width="200" height="200" viewBox="0 0 1024 1024" xmlns="http://www.w3.org/2000/svg"><path d="M160.479 404.361s-53.897-22.514-49.291-96.707c4.263-69.588 73.851-83.915 73.851-83.915s-36.84-83.744 14.839-127.577c47.415-40.082 105.576-11.598 105.576-11.598a64.13 64.13 0 0 1 55.09-62.084c55.432-9.21 76.24 28.313 76.24 28.313A91.078 91.078 0 0 1 518.652.65a76.751 76.751 0 0 1 79.65 44.004 108.646 108.646 0 0 1 114.104-12.792 68.223 68.223 0 0 1 43.663 72.658s73.51-18.59 103.7 35.476c26.266 47.245-15.35 87.838-15.35 87.838a85.28 85.28 0 0 1 69.758 72.658c11.427 61.06-42.98 99.947-42.98 99.947z" fill="#6C7AE5"/><path d="m606.319 682.883-85.28 1.023-85.279-1.023s17.056 79.31-37.352 100.459c0 0 6.993 74.363 121.608 74.363s122.632-74.363 122.632-74.363c-53.726-20.638-36.33-100.459-36.33-100.459z" fill="#FFEDE1"/><path d="M526.497 758.27a182.668 182.668 0 0 0 80.675-17.056 139.858 139.858 0 0 1-.853-58.331l-85.28 1.023-85.279-1.023a136.447 136.447 0 0 1-1.535 59.695 197.336 197.336 0 0 0 92.272 15.692z" fill="#FFCFAE"/><path d="M107.435 440.349a112.398 108.816 0 1 0 224.796 0 112.398 108.816 0 1 0-224.796 0ZM715.988 440.349a109.84 108.816 0 1 0 219.68 0 109.84 108.816 0 1 0-219.68 0Z" fill="#FFEDE1"/><path d="M161.843 440.349a46.904 45.369 0 1 0 93.808 0 46.904 45.369 0 1 0-93.808 0ZM787.452 440.349a46.904 45.369 0 1 0 93.807 0 46.904 45.369 0 1 0-93.807 0Z" fill="#FFCFAE"/><path d="M235.525 275.078s-85.28 170.558-21.15 309.222c86.474 189.15 528.732 190.173 616.91-5.799 61.231-136.447-32.235-305.3-32.235-305.3l-260.443-84.938z" fill="#FFEDE1"/><path d="M496.138 530.574a25.413 15.35 0 1 0 50.826 0 25.413 15.35 0 1 0-50.826 0Z" fill="#FFCFAE"/><path d="M742.936 546.436a8.528 8.528 0 0 1-7.504-4.605l-8.528-17.056a8.528 8.528 0 1 1 15.18-7.845l8.527 17.055a8.528 8.528 0 0 1-3.752 11.428 8.357 8.357 0 0 1-3.923 1.023zm44.857 0a8.528 8.528 0 0 1-7.504-4.605l-8.528-17.056a8.528 8.528 0 0 1 15.18-7.845l8.527 17.055a8.528 8.528 0 0 1-3.752 11.428 8.357 8.357 0 0 1-3.923 1.023zm-487.627 0a8.357 8.357 0 0 1-3.923-1.023 8.528 8.528 0 0 1-3.752-11.428l8.528-17.055a8.528 8.528 0 0 1 15.18 7.845l-8.528 17.056a8.528 8.528 0 0 1-7.505 4.605zm-44.004 0a8.357 8.357 0 0 1-3.923-1.023 8.528 8.528 0 0 1-3.752-11.428l8.528-17.055a8.528 8.528 0 1 1 15.18 7.845l-8.528 17.056a8.528 8.528 0 0 1-7.505 4.605z" fill="#FF4545"/><path d="m787.281 938.72-25.072-69.587a132.695 132.695 0 0 0-121.949-87.497c-4.435 38.888-55.773 69.759-119.391 69.759s-114.274-30.7-119.39-69.759a132.695 132.695 0 0 0-121.95 87.497l-23.367 69.588a32.747 32.747 0 0 0 13.645 39.058C300.167 996.54 370.607 1024 521.55 1024s221.726-27.46 251.915-46.562a32.747 32.747 0 0 0 13.815-38.717z" fill="#8DD9FF"/><path d="M212.329 331.191s17.056 70.27 110.522 54.75a87.155 87.155 0 0 0 66.517-54.75 90.055 90.055 0 0 0 92.443 27.63 62.595 62.595 0 0 0 49.292-65.323s35.476 48.268 86.302 41.957a76.07 76.07 0 0 0 62.936-42.64 88.861 88.861 0 0 0 62.936 55.432 113.421 113.421 0 0 0 82.55-17.056s72.83-163.054-295.236-163.054-318.262 163.054-318.262 163.054z" fill="#6C7AE5"/><path d="M467.996 588.052c10.063-11.256 25.584 2.218 53.385 2.218s35.476-20.638 53.214-8.528-4.605 57.137-52.873 59.013c-45.54 1.706-73.17-31.212-53.726-52.703z" fill="#FF4545"/><path d="M494.07 627.258a9.722 25.243 87.7 1 0 50.444-2.026 9.722 25.243 87.7 1 0-50.444 2.026Z" fill="#F99"/><path d="m643.16 444.101 20.808-18.932a34.112 34.112 0 0 0-28.143-15.35 36.67 36.67 0 1 0 34.112 40.081zm-244.41 0 20.807-18.932a34.112 34.112 0 0 0-28.142-15.35 36.67 36.67 0 1 0 34.112 40.081z" fill="#302B28"/></svg>