<?xml version="1.0" standalone="no"?><!DOCTYPE svg PUBLIC "-//W3C//DTD SVG 1.1//EN" "http://www.w3.org/Graphics/SVG/1.1/DTD/svg11.dtd"><svg class="icon" width="200px" height="200.00px" viewBox="0 0 1024 1024" version="1.1" xmlns="http://www.w3.org/2000/svg"><path d="M160.478923 404.360954S106.582436 381.847232 111.187515 307.654283c4.263963-69.58787 73.851832-83.914784 73.851833-83.914784s-36.840637-83.744226 14.838589-127.577762c47.415264-40.081248 105.575714-11.597978 105.575714-11.597978a64.129998 64.129998 0 0 1 55.090397-62.083295c55.431514-9.210159 76.239651 28.312712 76.239652 28.312711A91.078241 91.078241 0 0 1 518.651782 0.648975a76.751327 76.751327 0 0 1 79.650821 44.004094 108.645767 108.645767 0 0 1 114.103639-12.791888 68.223402 68.223402 0 0 1 43.662977 72.657923S829.579935 85.928227 859.76879 139.995273c26.26601 47.244706-15.350265 87.83763-15.350265 87.83763a85.279252 85.279252 0 0 1 69.758428 72.657922c11.42742 61.059944-42.980743 99.947283-42.980743 99.947284z" fill="#6C7AE5" /><path d="M606.318853 682.882992l-85.279252 1.023351-85.279252-1.023351s17.05585 79.309704-37.352313 100.458959c0 0 6.992899 74.363508 121.608214 74.363507s122.631564-74.363508 122.631564-74.363507C588.921885 762.704372 606.318853 682.882992 606.318853 682.882992z" fill="#FFEDE1" /><path d="M526.497473 758.269851a182.668158 182.668158 0 0 0 80.674172-17.055851 139.857973 139.857973 0 0 1-0.852792-58.331008l-85.279252 1.023351-85.279252-1.023351a136.446803 136.446803 0 0 1-1.535027 59.695476 197.336189 197.336189 0 0 0 92.272151 15.691383z" fill="#FFCFAE" /><path d="M107.435228 440.348799a112.398054 108.816326 0 1 0 224.796109 0 112.398054 108.816326 0 1 0-224.796109 0Z" fill="#FFEDE1" /><path d="M715.987971 440.348799a109.839677 108.816326 0 1 0 219.679353 0 109.839677 108.816326 0 1 0-219.679353 0Z" fill="#FFEDE1" /><path d="M161.843391 440.348799a46.903589 45.368562 0 1 0 93.807177 0 46.903589 45.368562 0 1 0-93.807177 0Z" fill="#FFCFAE" /><path d="M787.451984 440.348799a46.903589 45.368562 0 1 0 93.807177 0 46.903589 45.368562 0 1 0-93.807177 0Z" fill="#FFCFAE" /><path d="M235.524665 275.077608s-85.279252 170.558504-21.149255 309.222568c86.473162 189.149381 528.731363 190.172732 616.91011-5.798989 61.230503-136.446803-32.235557-305.299722-32.235558-305.299722L538.607127 188.26333z" fill="#FFEDE1" /><path d="M496.138059 530.574247a25.413217 15.350265 0 1 0 50.826434 0 25.413217 15.350265 0 1 0-50.826434 0Z" fill="#FFCFAE" /><path d="M742.936215 546.436188a8.527925 8.527925 0 0 1-7.504575-4.605079l-8.527925-17.055851a8.527925 8.527925 0 1 1 15.179707-7.845691l8.527925 17.055851a8.527925 8.527925 0 0 1-3.752287 11.427419 8.357367 8.357367 0 0 1-3.922845 1.023351zM787.793101 546.436188a8.527925 8.527925 0 0 1-7.504574-4.605079l-8.527925-17.055851a8.527925 8.527925 0 0 1 15.179707-7.845691l8.527925 17.055851a8.527925 8.527925 0 0 1-3.752287 11.427419 8.357367 8.357367 0 0 1-3.922846 1.023351zM300.166338 546.436188a8.357367 8.357367 0 0 1-3.922846-1.023351 8.527925 8.527925 0 0 1-3.752287-11.427419l8.527925-17.055851a8.527925 8.527925 0 0 1 15.179707 7.845691l-8.527925 17.055851a8.527925 8.527925 0 0 1-7.504574 4.605079zM256.162244 546.436188a8.357367 8.357367 0 0 1-3.922846-1.023351 8.527925 8.527925 0 0 1-3.752287-11.427419l8.527925-17.055851a8.527925 8.527925 0 1 1 15.179707 7.845691l-8.527925 17.055851A8.527925 8.527925 0 0 1 256.162244 546.436188z" fill="#FF4545" /><path d="M787.281426 938.720748l-25.0721-69.58787a132.694516 132.694516 0 0 0-121.949331-87.496512c-4.434521 38.887339-55.772631 69.758428-119.390953 69.758428s-114.274198-30.700531-119.390953-69.758428a132.694516 132.694516 0 0 0-121.94933 87.496512L256.162244 938.720748a32.747233 32.747233 0 0 0 13.64468 39.057897c30.359414 18.761435 100.800076 46.221355 251.744352 46.221355s221.726055-27.459919 251.914911-46.562472a32.747233 32.747233 0 0 0 13.815239-38.71678z" fill="#8DD9FF" /><path d="M212.328708 331.191356s17.05585 70.270104 110.521911 54.74928a87.155396 87.155396 0 0 0 66.517817-54.74928A90.05489 90.05489 0 0 0 481.811145 358.821834a62.594971 62.594971 0 0 0 49.291407-65.323907s35.476169 48.268057 86.302604 41.957392a76.069093 76.069093 0 0 0 62.936088-42.639626 88.860981 88.860981 0 0 0 62.936088 55.431514 113.421405 113.421405 0 0 0 82.550316-17.055851s72.828481-163.05393-295.236771-163.05393-318.262169 163.05393-318.262169 163.05393z" fill="#6C7AE5" /><path d="M467.995906 588.052463c10.062952-11.256861 25.583776 2.217261 53.384812 2.217261s35.476169-20.637579 53.214253-8.527925-4.60508 57.137099-52.873136 59.013242c-45.539121 1.705585-73.169598-31.212206-53.725929-52.702578z" fill="#FF4545" /><path d="M494.069664 627.25775a9.721835 25.242659 87.7 1 0 50.444646-2.026066 9.721835 25.242659 87.7 1 0-50.444646 2.026066Z" fill="#FF9999" /><path d="M643.15949 444.101086l20.808137-18.931994a34.111701 34.111701 0 0 0-28.142153-15.350265 36.670078 36.670078 0 1 0 34.111701 40.081248zM398.749153 444.101086l20.808138-18.931994a34.111701 34.111701 0 0 0-28.142153-15.350265 36.670078 36.670078 0 1 0 34.1117 40.081248z" fill="#302B28" /></svg>