<svg xmlns="http://www.w3.org/2000/svg" width="800" height="800" xml:space="preserve"><g fill="#00A0FF"><path d="M282.639 281.223a66.517 66.517 0 0 0-7.664-4.983 4.355 4.355 0 0 0-5.604 1.177l-16.492 21.912-1.176 1.563c-1.786 2.373-4.638 3.665-7.605 3.529a29.961 29.961 0 0 0-3.242.029c-8.289.525-16.308 4.525-21.694 11.681a29.336 29.336 0 0 0-5.879 19.245c.063 1.201.757 2.298 1.851 2.796a7.738 7.738 0 0 1 4.454 5.83c.618 3.809-1.722 7.551-5.418 8.659a7.76 7.76 0 0 1-9.814-5.724 7.73 7.73 0 0 1 1.463-6.48 4.886 4.886 0 0 0 1.044-3.444c-.758-8.552 1.52-17.402 7.09-24.802 7.026-9.334 17.717-14.274 28.562-14.337a6.703 6.703 0 0 0 5.309-2.681l15.188-20.178c1.189-1.579.421-3.848-1.476-4.405-25.43-7.46-53.905.934-70.96 23.146-22.099 28.781-16.729 70.279 11.987 92.462a66.457 66.457 0 0 0 8.36 5.508 4.346 4.346 0 0 0 5.577-1.193l16.492-21.911 1.176-1.563c1.786-2.373 4.638-3.665 7.605-3.529 1.082.049 2.164.039 3.242-.029 8.289-.525 16.308-4.525 21.694-11.681a29.336 29.336 0 0 0 5.879-19.245c-.063-1.201-.757-2.298-1.851-2.796a7.738 7.738 0 0 1-4.454-5.83c-.618-3.809 1.722-7.551 5.418-8.658a7.76 7.76 0 0 1 9.814 5.724 7.73 7.73 0 0 1-1.463 6.48 4.886 4.886 0 0 0-1.044 3.444c.758 8.552-1.52 17.402-7.09 24.802-7.026 9.334-17.717 14.274-28.562 14.337a6.703 6.703 0 0 0-5.309 2.681l-15.187 20.177c-1.18 1.568-.439 3.842 1.444 4.396 25.633 7.534 54.368-1.045 71.384-23.652 21.926-29.135 16.085-70.529-13.049-92.457zM391.613 299.257l-.001-1.567a2.054 2.054 0 0 0-2.053-2.052h-51.424a2.053 2.053 0 0 0-2.053 2.053v3.137c0 1.134.919 2.053 2.053 2.053h43.629a2.048 2.048 0 0 1 2.034 2.348c-1.224 8.113-5.061 23.285-17.051 37.854a2.074 2.074 0 0 1-3.241-.039c-10.032-12.828-13.119-25.98-13.962-30.826a2.047 2.047 0 0 0-2.237-1.678l-1.643.174-1.449.151a2.046 2.046 0 0 0-1.808 2.403c1.028 5.558 4.773 20.841 16.549 35.388.683.843.625 2.076-.175 2.81-14.336 13.149-27.229 16.031-31.841 16.657a2.057 2.057 0 0 0-1.789 2.046l.015 3.169c.006 1.22 1.065 2.174 2.276 2.032 5.484-.645 20.116-3.743 36.284-18.613a2.065 2.065 0 0 1 2.81.003c7.813 7.235 17.799 14.211 31.266 18.495 1.091.347 2.259-.287 2.582-1.385l.887-3.007c.318-1.078-.297-2.198-1.367-2.539-12.252-3.908-21.285-10.2-28.378-16.651-.818-.744-.859-2.006-.141-2.846 19.984-23.396 20.23-48.432 20.228-49.57zM427.31 292.355h-3.137a2.053 2.053 0 0 0-2.053 2.053v10.999a2.053 2.053 0 0 1-2.053 2.053h-7.379a2.053 2.053 0 0 0-2.053 2.053v3.137c0 1.134.919 2.053 2.053 2.053h7.379c1.134 0 2.053.919 2.053 2.053v15.933a2.053 2.053 0 0 1-2.053 2.053h-7.379a2.053 2.053 0 0 0-2.053 2.053v3.137c0 1.134.919 2.053 2.053 2.053h7.379c1.134 0 2.053.919 2.053 2.053v15.065c0 3.27-1.307 8.606-9.648 9.31-1.078.091-1.921.965-1.921 2.047v3.125c0 1.196 1.017 2.157 2.209 2.055 8.099-.693 16.603-5.292 16.603-16.537v-15.065c0-1.134.919-2.053 2.053-2.053h6.557a2.053 2.053 0 0 0 2.053-2.053v-3.137a2.053 2.053 0 0 0-2.053-2.053h-6.557a2.053 2.053 0 0 1-2.053-2.053v-15.933c0-1.134.919-2.053 2.053-2.053h6.557a2.053 2.053 0 0 0 2.053-2.053v-3.137a2.053 2.053 0 0 0-2.053-2.053h-6.557a2.053 2.053 0 0 1-2.053-2.053v-10.999a2.053 2.053 0 0 0-2.053-2.053zM443.648 373.092c0 1.134.919 2.053 2.053 2.053h23.138c10.239 0 18.569-7.94 18.569-17.7v-48.63a2.053 2.053 0 0 0-2.053-2.053h-39.654a2.053 2.053 0 0 0-2.053 2.053v64.277zm25.191-5.19h-15.895a2.053 2.053 0 0 1-2.053-2.053v-21.81c0-1.134.919-2.053 2.053-2.053h25.167c1.134 0 2.053.919 2.053 2.053v13.406c.001 5.766-5.08 10.457-11.325 10.457zm11.326-51.843v16.631a2.053 2.053 0 0 1-2.053 2.053h-25.167a2.053 2.053 0 0 1-2.053-2.053v-16.631c0-1.134.919-2.053 2.053-2.053h25.167c1.134 0 2.053.919 2.053 2.053zM475.171 292.301h-20.44a2.053 2.053 0 0 0-2.053 2.053v3.137c0 1.134.919 2.053 2.053 2.053h20.44a2.053 2.053 0 0 0 2.053-2.053v-3.137a2.053 2.053 0 0 0-2.053-2.053zM553.303 295.487H510.73a2.053 2.053 0 0 0-2.053 2.053v3.137c0 1.134.919 2.053 2.053 2.053h42.573a2.053 2.053 0 0 0 2.053-2.053v-3.137a2.053 2.053 0 0 0-2.053-2.053zM535.11 331.8h29.657a2.053 2.053 0 0 0 2.053-2.053v-3.137a2.053 2.053 0 0 0-2.053-2.053h-65.51a2.053 2.053 0 0 0-2.053 2.053v3.137c0 1.134.919 2.053 2.053 2.053h20.274c1.638 0 2.617 1.824 1.711 3.189l-13.492 24.343a7.025 7.025 0 0 0-.821 1.633c-1.129 3.299-.601 6.838 1.451 9.71 2.15 3.01 5.706 4.806 9.509 4.806h36.976a4.777 4.777 0 0 0 4.061-2.218 4.648 4.648 0 0 0 .283-4.495l-8.586-16.643a2.053 2.053 0 0 0-2.766-.883l-2.788 1.439a2.053 2.053 0 0 0-.883 2.766l5.055 9.796c.705 1.367-.287 2.995-1.825 2.995h-29.528c-1.492 0-2.81-.647-3.616-1.775-.367-.512-.899-1.53-.589-2.798.052-.212.157-.413.278-.596l16.397-28.72a5.705 5.705 0 0 1 4.752-2.549z"/></g></svg>