<?xml version="1.0" standalone="no"?><!DOCTYPE svg PUBLIC "-//W3C//DTD SVG 1.1//EN" "http://www.w3.org/Graphics/SVG/1.1/DTD/svg11.dtd"><svg class="icon" width="200px" height="200.00px" viewBox="0 0 1024 1024" version="1.1" xmlns="http://www.w3.org/2000/svg"><path d="M447.2 402.8c28.8 0 56.4 6.4 82 18.4 19.2 9.2 36.8 21.6 52.8 37.2 15.6 15.6 28 33.2 37.2 52.4-12.4 12.4-27.6 18.8-44.8 18.8-6 0-12.4-0.8-18.4-2.8-10.4-17.2-25.2-31.6-42.4-42.4-20.4-12.4-42.4-18.8-66.4-18.8-16.4 0-32.8 3.2-48 9.6-15.6 6.4-29.6 15.6-41.6 28l-95.2 95.2c-12.4 12.4-21.6 26-28 41.6-6.4 15.2-9.6 31.6-9.6 48s3.2 32.8 9.6 48c6.4 15.6 15.6 29.6 28 41.6 12.4 12.4 26 21.6 41.6 28 15.2 6.4 31.6 9.6 48 9.6s32.8-3.2 48-9.6c15.6-6.4 29.6-15.6 41.6-28l66.8-66.8c21.2 5.6 43.2 8.8 65.6 8.8 3.6 0 8.8 0 15.2-0.4-2.4 2.8-5.2 5.6-7.6 8l-95.2 95.2c-18.4 18.4-39.2 32.4-62.4 41.6-22.8 9.2-47.6 14-72.4 14-24.8 0-48.8-4.8-72.4-14.4-23.2-9.6-44.4-23.2-62.4-41.6-18.4-18.4-32.4-39.2-41.6-62.4-9.2-22.8-14-47.6-14-72.4 0-24.8 4.8-49.6 14-72.4 9.6-23.2 23.2-44 41.6-62.4L312 457.2c2-2 4.4-4.4 8-7.6 17.6-15.6 37.6-27.6 59.2-36 22.8-6.8 45.2-10.8 68-10.8z m222.8-222.4c24.8 0 49.2 4.8 72.4 14 23.2 9.6 44 23.2 62.4 41.6 18.4 18.4 32.4 39.2 41.6 62.4 9.2 22.8 14 47.6 14 72.4 0 24.8-4.8 48.8-14.4 72.4-9.6 23.6-23.2 44.4-41.6 62.4l-95.2 95.2c-2 2-4.4 4.4-8 7.6-17.6 15.6-37.6 27.6-59.2 36-21.6 8-44.4 12.4-67.2 12.4-28.8 0-56.4-6.4-82-18.4-19.2-9.2-36.8-21.6-52.8-37.2-15.6-15.6-28-33.2-37.2-52.8 12.4-12.4 27.2-18.8 44.8-18.8 6 0 12.4 0.8 18.8 2.8 10.4 17.2 25.2 31.6 42 42.4 20.4 12.4 42.4 18.4 66.4 18.4 16.4 0 32.8-3.2 48-9.6 15.6-6.4 29.6-15.6 41.6-28l95.2-95.2c12.4-12.4 21.6-26 28-41.6 6.4-15.2 9.6-31.6 9.6-48s-3.2-32.8-9.6-48c-6.4-15.6-15.6-29.6-28-41.6-12.4-12.4-26-21.6-41.6-28-15.2-6.4-31.6-9.6-48-9.6s-32.8 3.2-48 9.6c-15.6 6.4-29.6 15.6-41.6 28L513.6 348c-21.2-5.6-43.2-8.8-65.6-8.8-3.6 0-8.8 0-15.6 0.4 2.4-2.8 5.2-5.6 7.6-8L534.8 236c18.4-18 39.2-32 62.4-41.6 23.6-9.6 47.6-14 72.8-14z m0 0" fill="#D0011B" /></svg>