<svg width="60" height="20" fill="none" xmlns="http://www.w3.org/2000/svg"><mask id="a" mask-type="alpha" maskUnits="userSpaceOnUse" x="0" y="0" width="60" height="20"><path d="M57 0H3a3 3 0 0 0-3 3v14a3 3 0 0 0 3 3h54a3 3 0 0 0 3-3V3a3 3 0 0 0-3-3z" fill="#fff"/></mask><g mask="url(#a)"><path d="M57 0H3a3 3 0 0 0-3 3v14a3 3 0 0 0 3 3h54a3 3 0 0 0 3-3V3a3 3 0 0 0-3-3z" fill="#2B2B2B"/><mask id="b" mask-type="alpha" maskUnits="userSpaceOnUse" x="0" y="0" width="22" height="20"><path d="M22 0H0v20h22V0z" fill="#fff"/></mask><g mask="url(#b)"><path d="M22 0H0v20h22V0z" fill="#F8E81C"/><path fill-rule="evenodd" clip-rule="evenodd" d="M0-3h25v25H0V-3zm6.416 13.382 2.867 2.185-1.076-3.423 2.804-2.184H7.49L6.416 3.603 5.34 6.96H1.819l2.804 2.184-1.077 3.423 2.87-2.185zm11.616 2.077.944.718-.354-1.125.923-.719h-1.16l-.353-1.105-.354 1.105H16.52l.923.72-.355 1.124.944-.718zm-3.623 3.358.617 1.014.083-1.178 1.122-.328-1.078-.425.076-1.158-.734.899-1.078-.425.595 1.006-.742.917 1.14-.322zm3.97-8.435 1.17.2-.834-.834.485-1.064-1.03.537-.823-.817.198 1.144-1.027.534 1.15.21.205 1.163.506-1.073zm-3.2-3.499 1.16-.234-1.079-.477.07-1.167-.765.87-1.064-.464.597.996-.765.869 1.148-.219.613 1.01.084-1.184z" fill="#D0011B"/></g></g><rect width="60" height="20" rx="3" fill="url(#c)"/><path d="M35.432 11.148v-3.18h3.444v3.18h-3.444zm-4.356 0v-3.18h3.432v3.18h-3.432zm4.356-4.056V4.956h-.924v2.136H30.2v5.676h.876v-.744h3.432v3.888h.924v-3.888h3.444v.684h.912V7.092h-4.356zm12.504-.36c-.168-.504-.576-1.272-.936-1.836l-.924.264c.36.588.744 1.392.888 1.884l.972-.312zm1.572 1.212c-.6 1.62-1.404 2.94-2.472 4.02-1.128-1.128-1.992-2.496-2.616-4.02h5.088zm2.892 0v-.876H41.648v.876h1.848c.696 1.812 1.644 3.372 2.88 4.644-1.308 1.104-2.916 1.92-4.896 2.484.18.204.444.612.552.828 1.992-.636 3.648-1.5 4.992-2.676 1.332 1.2 2.964 2.076 4.92 2.628.144-.252.396-.624.612-.828-1.908-.468-3.528-1.32-4.848-2.436 1.2-1.236 2.124-2.748 2.808-4.644H52.4z" fill="#FDFDFD"/><defs><linearGradient id="c" x1="28" y1="0" x2="28" y2="20" gradientUnits="userSpaceOnUse"><stop stop-color="#EEE" stop-opacity=".1"/><stop offset="1" stop-opacity=".1"/></linearGradient></defs></svg>