<svg width="71" height="20" fill="none" xmlns="http://www.w3.org/2000/svg"><mask id="a" mask-type="alpha" maskUnits="userSpaceOnUse" x="0" y="0" width="71" height="20"><path d="M68 0H3a3 3 0 0 0-3 3v14a3 3 0 0 0 3 3h65a3 3 0 0 0 3-3V3a3 3 0 0 0-3-3Z" fill="#fff"/></mask><g mask="url(#a)"><path d="M68 0H3a3 3 0 0 0-3 3v14a3 3 0 0 0 3 3h65a3 3 0 0 0 3-3V3a3 3 0 0 0-3-3Z" fill="#1056A7"/><mask id="b" mask-type="alpha" maskUnits="userSpaceOnUse" x="0" y="0" width="22" height="20"><path d="M22 0H0v20h22V0Z" fill="#fff"/></mask><g mask="url(#b)"><path d="M22 0H0v20h22V0Z" fill="#CB0000"/><mask id="c" mask-type="alpha" maskUnits="userSpaceOnUse" x="-6" y="0" width="39" height="20"><path d="M28 0H-1a5 5 0 0 0-5 5v10a5 5 0 0 0 5 5h29a5 5 0 0 0 5-5V5a5 5 0 0 0-5-5Z" fill="#fff"/></mask><g mask="url(#c)"><path d="M28 0H-1a5 5 0 0 0-5 5v10a5 5 0 0 0 5 5h29a5 5 0 0 0 5-5V5a5 5 0 0 0-5-5Z" fill="#2F80B7"/><path fill-rule="evenodd" clip-rule="evenodd" d="M12.28 8.593 28.31.56 29.424 0l1.111 2.245-1.115.559-14.346 7.19 14.368 7.202 1.116.56L29.448 20l-1.116-.56-16.053-8.045-16.052 8.046-1.116.559L-6 17.755l1.116-.559L9.484 9.994l-14.346-7.19-1.115-.56L-4.867 0l1.116.56 16.03 8.033Z" fill="#BE3B31" stroke="#EDF1F2"/><path d="M10.127 9.106V0h2v9.106h16.108v2H12.127V20h-2v-8.894H-5v-2h15.127Z" fill="#BE3B31"/><path d="M10.127 9.106V0h2v9.106h16.108v2H12.127V20h-2v-8.894H-5v-2h15.127Z" stroke="#EDF1F2" stroke-width="2"/></g></g></g><rect width="71" height="20" rx="3" fill="url(#d)"/><path d="M27.31 15h5.207v-.948h-4.092v-3.204h3.336V9.9h-3.336V7.14h3.96v-.948H27.31V15Zm6.958 0h1.092v-4.728c.66-.66 1.116-.996 1.788-.996.864 0 1.236.516 1.236 1.74V15h1.092v-4.128c0-1.668-.624-2.556-1.992-2.556-.888 0-1.56.492-2.184 1.104h-.036l-.096-.936h-.9V15Zm9.532 3c2.016 0 3.3-1.044 3.3-2.256 0-1.068-.768-1.548-2.28-1.548h-1.272c-.876 0-1.14-.288-1.14-.708 0-.36.18-.576.42-.78.288.144.648.228.972.228 1.32 0 2.376-.876 2.376-2.268 0-.564-.216-1.044-.528-1.344h1.332v-.84h-2.268a2.688 2.688 0 0 0-.912-.168c-1.32 0-2.448.9-2.448 2.328 0 .78.42 1.404.852 1.752v.048c-.336.24-.732.672-.732 1.212 0 .516.252.864.6 1.068v.048c-.612.396-.96.924-.96 1.476 0 1.128 1.092 1.752 2.688 1.752Zm0-5.808c-.756 0-1.392-.6-1.392-1.548 0-.96.624-1.524 1.392-1.524.768 0 1.392.576 1.392 1.524 0 .948-.648 1.548-1.392 1.548Zm.156 5.064c-1.176 0-1.884-.456-1.884-1.152 0-.384.192-.768.66-1.104.288.072.6.108.84.108H44.7c.864 0 1.332.204 1.332.804 0 .684-.828 1.344-2.076 1.344Zm5.562-2.1c.3 0 .48-.036.636-.096l-.156-.84c-.12.024-.168.024-.228.024-.168 0-.312-.132-.312-.468V5.448h-1.092v8.256c0 .924.336 1.452 1.152 1.452Zm2.27-.156h1.092V8.484h-1.092V15Zm.552-7.86c.432 0 .732-.288.732-.732 0-.42-.3-.708-.732-.708s-.732.288-.732.708c0 .444.3.732.732.732Zm4.456 8.016c1.536 0 2.376-.876 2.376-1.932 0-1.236-1.044-1.62-1.992-1.98-.732-.276-1.404-.504-1.404-1.128 0-.504.384-.936 1.212-.936.576 0 1.032.24 1.476.576l.528-.708c-.504-.396-1.212-.732-2.016-.732-1.416 0-2.256.816-2.256 1.848 0 1.104.996 1.548 1.908 1.884.72.276 1.488.564 1.488 1.236 0 .564-.42 1.02-1.284 1.02-.78 0-1.368-.312-1.932-.768l-.54.72c.624.516 1.512.9 2.436.9Zm3.91-.156h1.092v-4.728c.66-.66 1.116-.996 1.788-.996.864 0 1.236.516 1.236 1.74V15h1.092v-4.128c0-1.668-.624-2.556-1.992-2.556-.888 0-1.56.492-2.16 1.092l.036-1.344V5.448h-1.092V15Z" fill="#FDFDFD"/><defs><linearGradient id="d" x1="33.133" y1="0" x2="33.133" y2="20" gradientUnits="userSpaceOnUse"><stop stop-color="#EEE" stop-opacity=".1"/><stop offset="1" stop-opacity=".1"/></linearGradient></defs></svg>